<?xml version="1.0" encoding="UTF-8"?>
<svg xmlns="http://www.w3.org/2000/svg" width="48" height="48" viewBox="0 0 48 48" fill="none">
  <path d="M39.6974 7.20117C42.292 12.2596 43.3186 18.1019 42.6653 24.0003C42.292 29.8986 40.2388 35.741 36.7483 40.7994L33.8924 38.9328C36.8976 34.3971 38.6522 29.2267 38.9322 24.0003C39.5668 18.7739 38.7268 13.6035 36.5056 9.06774L39.6974 7.20117ZM11.2509 7.20117L14.1068 9.06774C11.1016 13.6035 9.34704 18.7739 9.06706 24.0003C8.43243 29.2267 9.29105 34.3971 11.4936 38.9328L8.3391 40.7994C5.7259 35.741 4.68062 29.9173 5.33392 24.0003C5.70724 18.1019 7.76046 12.2596 11.2509 7.20117ZM24.1489 21.5364L28.4794 15.5074H33.2018L26.1462 24.8402L30.2526 34.0238H26.0342L23.4583 27.7334L18.9225 33.9491H14.2188L21.4984 24.3923L17.5226 15.5074H21.7597L24.1489 21.5364Z" fill="#5A55F4"></path>
</svg>
